<svg width="245" height="127" viewBox="0 0 245 127" fill="none" xmlns="http://www.w3.org/2000/svg">
<path d="M234.421 91.5476L132.979 125.445C126.756 127.483 120.057 127.519 113.813 125.546L11.3379 91.5476H234.421Z" fill="#9A9898"/>
<path d="M234.407 91.5621L131.717 118.504C125.916 120.012 119.829 120.012 114.028 118.504L11.2804 91.5765C5.09717 89.9459 0.879395 85.1405 0.879395 79.5991V39.9582C0.879395 34.4601 5.18325 29.597 11.3378 27.9808L114.056 1.12536C119.844 -0.375121 125.915 -0.375121 131.702 1.12536L234.421 27.9808C240.633 29.597 244.879 34.4601 244.879 39.9582V79.5558C244.879 85.0683 240.576 89.9459 234.407 91.5621Z" fill="#2C2826"/>
<path d="M114.215 52.9313C114.215 64.7644 110.298 70.8541 100.514 70.8541C99.1912 70.9804 97.8577 70.7841 96.6265 70.2816C95.3953 69.7792 94.3027 68.9856 93.4413 67.968C92.3602 68.9926 91.0781 69.7786 89.6773 70.2756C88.2765 70.7727 86.7879 70.9697 85.307 70.8541C78.3921 70.8541 75.2646 67.2753 75.2646 61.0124V41.762C75.2646 40.5209 75.7811 40.0014 77.0149 40.0014H81.8065C83.0403 40.0014 83.5711 40.5209 83.5711 41.762V59.7281C83.5711 62.8307 83.8006 64.5912 86.2538 64.5912C89.0083 64.5912 90.4142 62.6575 90.4142 59.6127L90.8303 41.762C90.8303 40.5209 91.3467 40.0014 92.5805 40.0014H96.4396C97.6734 40.0014 98.2042 40.5209 98.2042 41.762L98.7781 59.7281C98.7781 62.8307 99.0076 64.5912 101.418 64.5912C105.506 64.5912 106.095 59.4972 106.095 54.3455C106.031 50.1073 105.637 45.8807 104.918 41.7042C104.689 40.5209 105.162 40.0014 106.353 40.0014C106.353 40.0014 114.143 39.3521 114.143 52.989" fill="white"/>
<path d="M170.666 46.3798C169.578 45.8288 168.369 45.5656 167.152 45.615C161.341 45.615 160.065 50.9399 160.065 55.9762C160.065 60.3054 161.872 64.5336 166.319 64.5336C167.848 64.5212 169.341 64.0707 170.623 63.2348L170.666 46.3798ZM164.096 70.7099C154.972 70.7099 151.701 63.4945 151.701 55.5C151.701 47.5054 155.502 39.4531 167.668 39.4531C170.903 39.4605 174.113 40.0368 177.151 41.1559C177.663 41.3002 178.11 41.6167 178.418 42.0526C178.726 42.4886 178.877 43.0176 178.844 43.5514V62.8885C178.844 64.0573 179.719 64.5336 180.766 64.5336C180.986 64.5483 181.206 64.5483 181.426 64.5336C182.416 64.346 182.861 64.5335 183.004 65.7602C183.004 65.7602 183.004 70.0893 177.022 70.782C175.853 70.9892 174.649 70.8049 173.594 70.2575C172.539 69.7101 171.692 68.8298 171.183 67.7516C170.269 68.7106 169.167 69.4686 167.948 69.9778C166.728 70.4869 165.416 70.7362 164.096 70.7099Z" fill="white"/>
<path d="M187.466 40.0591V34.9651C187.466 33.7385 187.983 33.1469 189.217 33.0891L193.965 32.6851C195.185 32.5696 195.715 33.0314 195.715 34.2725V39.4098H202.501C203.721 39.4098 204.194 39.9437 204.079 41.1703C204.079 41.1703 203.807 46.0767 201.21 46.0767H195.658V61.1278C195.658 63.2924 196.174 64.2882 198.169 64.2882C199.033 64.2685 199.896 64.1914 200.751 64.0573C201.856 63.8841 202.329 64.2882 202.558 65.5003C202.558 65.5003 202.558 70.7531 196.533 70.7675C194.424 70.7675 187.28 71.388 187.28 60.3486L187.466 40.0591Z" fill="white"/>
<path d="M62.4106 57.6068C62.2895 58.8538 62.0296 60.0833 61.6359 61.2721C60.8469 63.6243 59.2975 64.4324 56.3996 64.3892H55.8688C54.8279 64.4565 53.7953 64.1642 52.9421 63.5605C52.089 62.9569 51.4664 62.0783 51.1776 61.0701C50.5035 59.1588 50.192 57.1372 50.2594 55.1103C50.2594 54.2877 50.2594 53.4507 50.4029 52.6282C50.5163 51.3799 50.7764 50.1496 51.1776 48.9628C51.9666 46.6106 53.5016 45.7881 56.3996 45.8458H56.9304C57.9731 45.7777 59.0078 46.0696 59.8634 46.673C60.7189 47.2765 61.3442 48.1555 61.6359 49.1648C62.3079 51.072 62.6241 53.0876 62.5684 55.1103C62.5684 55.9472 62.4967 56.7698 62.425 57.6068H62.4106ZM70.6597 55.1103C70.6311 52.7489 70.3229 50.3994 69.7415 48.1114C69.3747 46.2727 68.5112 44.5712 67.2457 43.1939C65.9803 41.8167 64.3619 40.8169 62.5684 40.3044C60.5452 39.6968 58.4384 39.4191 56.3278 39.4819C55.5245 39.4819 54.7354 39.4819 53.932 39.4819C48.1935 39.7705 44.3057 42.9164 42.9859 48.1403C41.7996 52.7054 41.7996 57.5007 42.9859 62.0658C43.3497 63.9059 44.2122 65.6089 45.4781 66.9867C46.744 68.3645 48.364 69.3633 50.159 69.8728C52.1811 70.4868 54.2882 70.7694 56.3996 70.7098C57.203 70.7098 58.0063 70.7098 58.7954 70.7098C64.5339 70.4067 68.4217 67.2609 69.7559 62.0514C70.3344 59.793 70.6331 57.4713 70.6453 55.1391" fill="white"/>
<path d="M119.723 44.6047C119.715 44.0594 119.88 43.5256 120.195 43.0815C120.51 42.6375 120.958 42.3065 121.474 42.1371C125.808 40.4465 130.398 39.5143 135.045 39.3809C141.099 39.3809 146.752 41.0837 146.752 49.8719V68.3431C146.752 69.5697 146.235 70.0892 145.016 70.0892H140.411C139.177 70.0892 138.66 69.5697 138.66 68.3431V50.579C138.66 46.5962 136.508 45.485 133.768 45.485C131.711 45.4384 129.672 45.8783 127.815 46.7693V68.4153C127.815 69.6419 127.298 70.1614 126.079 70.1614H121.474C120.24 70.1614 119.723 69.6419 119.723 68.4153V44.6047Z" fill="white"/>
<path d="M73.3709 83.7984H70.5017H69.4687H66.5995C66.3269 83.7984 65.9683 83.7984 65.9683 84.1736C65.9683 84.5488 66.1548 84.5055 66.5278 84.5344H68.7227C68.7227 84.7653 68.7227 85.0106 68.7227 85.2559C68.7227 85.5012 68.7227 85.7465 68.7227 86.0063C68.7227 86.266 68.7227 86.5114 68.7227 86.7711C68.8805 88.9068 69.024 91.2302 69.024 93.5535C69.029 93.5918 69.029 93.6306 69.024 93.6689C69.016 93.7361 69.016 93.8039 69.024 93.871C69.0227 93.9423 69.0465 94.0117 69.0911 94.0672C69.1357 94.1226 69.1983 94.1604 69.2679 94.174C69.6589 94.2169 70.0533 94.2169 70.4443 94.174H70.9177C71.0899 94.174 71.5489 94.174 71.5489 93.7555C71.5561 93.6546 71.5561 93.5534 71.5489 93.4525C71.5489 93.3659 71.5489 93.2937 71.5489 93.2072C71.5489 92.0527 71.5489 90.855 71.5489 89.715V87.3772C71.5489 86.901 71.5489 86.4248 71.4485 85.9341C71.3481 85.4435 71.3624 84.9528 71.3481 84.4911H73.0122C73.5 84.4911 73.873 84.4911 74.0595 84.3179C74.0957 84.2858 74.1237 84.2455 74.1412 84.2003C74.1587 84.1551 74.1651 84.1064 74.1599 84.0582V83.9716C73.9638 83.8336 73.7224 83.7767 73.4857 83.8128" fill="#9A9898"/>
<path d="M83.5707 92.3557C83.5707 90.6962 83.5707 88.9934 83.5707 87.3483C83.5707 86.569 83.5707 85.7898 83.4847 85.0394V84.3034C83.4847 84.0437 83.3412 83.7406 82.6526 83.7406C82.2222 83.7406 82.1648 84.0004 82.1648 84.1447C82.1648 84.289 82.1648 84.7508 82.1648 85.0394C82.1648 85.328 82.1648 85.6311 82.1648 85.9197V88.2574H80.9884H78.6357V88.0265C78.6357 87.9544 78.6357 87.8967 78.6357 87.8245C78.6357 87.2473 78.6357 86.6701 78.6357 86.0928C78.6357 85.5156 78.6357 84.9672 78.6357 84.39C78.6465 84.3083 78.6407 84.2251 78.6185 84.1457C78.5963 84.0663 78.5582 83.9923 78.5065 83.9282C78.3101 83.7778 78.063 83.7105 77.8179 83.7406H76.828C76.3403 83.7406 76.0964 83.7406 76.082 84.2024V84.8374C76.125 85.5101 76.125 86.1849 76.082 86.8577C76.082 87.1463 76.082 87.4349 76.082 87.7379L76.1681 88.6615V93.2793C76.1549 93.5183 76.1841 93.7577 76.2542 93.9864V94.1018H76.369C76.6366 94.1162 76.9047 94.1162 77.1723 94.1018C78.4061 94.1018 78.4492 94.1018 78.5065 94.0008C78.5482 93.9516 78.5788 93.8938 78.5961 93.8315C78.6134 93.7692 78.6171 93.7039 78.607 93.64V93.5535C78.6137 93.5008 78.6137 93.4474 78.607 93.3947V92.399C78.607 91.7929 78.607 91.1868 78.607 90.5952C78.607 90.0035 78.607 89.6572 78.607 89.1521C78.5999 89.0946 78.5999 89.0365 78.607 88.979H82.1505C82.1505 89.1521 82.1505 89.3253 82.1505 89.484V89.8592C82.1505 90.3932 82.1505 90.9127 82.1505 91.4322C82.1505 91.9517 82.2365 92.4423 82.2365 92.8752C82.2503 92.9999 82.2503 93.1257 82.2365 93.2504C82.2289 93.3898 82.2289 93.5295 82.2365 93.6689C82.2365 93.8277 82.3226 94.0152 82.6813 94.0152H82.9539H83.1404C83.3269 94.0152 83.6425 94.0152 83.6425 93.6256C83.6572 93.3372 83.6572 93.0482 83.6425 92.7598C83.6425 92.5577 83.6425 92.3702 83.6425 92.1826" fill="#9A9898"/>
<path d="M92.1787 93.5679V93.4092H92.0209C91.7737 93.3712 91.5221 93.3712 91.2749 93.4092H88.4774C88.4774 92.9907 88.4774 92.5866 88.4774 92.1682V90.7251C88.4774 90.2777 88.4774 89.816 88.4774 89.383H88.6496C89.2091 89.383 90.3568 89.383 90.8732 89.383C91.3897 89.383 91.3753 89.1089 91.3753 89.0079C91.3753 88.6038 90.8732 88.6038 90.7011 88.6038H88.4918V88.0266C88.4918 87.7957 88.4918 87.5648 88.4918 87.3483C88.4918 86.4392 88.4918 85.5012 88.42 84.5632H91.5618C91.8918 84.5632 92.0209 84.3612 92.0209 84.1736C92.0289 84.1258 92.0289 84.0771 92.0209 84.0293C92.0209 83.7984 91.8201 83.7984 91.4901 83.7984H86.8419C86.1103 83.7984 85.9812 84.1592 85.9525 84.3323V84.6787C85.9525 84.9817 85.9525 85.2848 85.9525 85.5878C85.9525 85.8908 85.9525 86.165 85.9525 86.4536C85.9525 87.4734 85.9525 88.498 85.9525 89.5274C85.9525 90.5519 85.9525 91.5765 85.9525 92.6011C85.9247 93.0817 85.9247 93.5635 85.9525 94.0441V94.1596H86.0529C86.1519 94.1835 86.2552 94.1835 86.3542 94.1596H91.6479C92.107 94.1596 92.15 93.8565 92.15 93.77C92.1581 93.7174 92.1581 93.6638 92.15 93.6112C92.15 93.6112 92.15 93.6112 92.15 93.5246" fill="#9A9898"/>
<path d="M103.67 85.6454C103.67 86.8575 102.852 87.6657 100.7 88.5315C100.7 87.9543 100.7 87.3771 100.7 86.8143C100.7 85.9484 100.729 85.1692 100.786 84.4765H101.087C103.411 84.4765 103.713 85.0826 103.713 85.6309L103.67 85.6454ZM105.549 93.308C105.291 93.0194 105.018 92.7452 104.746 92.4711L103.942 91.6341L103.598 91.2589L102.981 90.5806L102.077 89.787L101.891 89.6282L101.633 89.4695L101.417 89.3252C102.506 88.9268 103.488 88.2797 104.287 87.4348C104.712 86.9051 104.958 86.2531 104.99 85.5732C104.99 84.6785 104.315 84.1302 102.881 83.7983C102.063 83.6871 101.237 83.6533 100.413 83.6972H99.4089C98.9498 83.6972 98.6055 83.6972 98.5194 84.159C98.4647 84.3526 98.4263 84.5506 98.4047 84.7507C98.4047 85.3423 98.4047 85.9629 98.4047 86.5112C98.4047 87.2327 98.4047 87.9543 98.4047 88.6469C98.4047 89.3396 98.4047 89.6427 98.4047 90.09C98.4047 90.5374 98.4047 91.0713 98.4047 91.5331V93.4235C98.3938 93.5194 98.3938 93.6162 98.4047 93.7121C98.4764 93.9863 98.7203 93.9863 98.9498 93.9863H99.868C100.413 93.9863 100.772 93.9863 100.772 93.5101C100.772 93.3658 100.772 93.2215 100.772 93.0771C100.765 92.9474 100.765 92.8173 100.772 92.6875C100.772 92.2546 100.772 91.8217 100.772 91.3888C100.772 90.9558 100.772 90.5374 100.772 90.1044V90.0467C101.17 90.3373 101.536 90.6712 101.862 91.0424L102.049 91.23L102.766 92.0237C103.328 92.7018 103.947 93.3295 104.617 93.8997C104.825 94.0422 105.068 94.1268 105.32 94.145C105.382 94.1531 105.445 94.1486 105.505 94.1319C105.566 94.1151 105.623 94.0864 105.672 94.0475C105.721 94.0086 105.763 93.9601 105.793 93.905C105.824 93.8499 105.843 93.7892 105.85 93.7265C105.839 93.6408 105.806 93.5593 105.756 93.4889C105.706 93.4185 105.64 93.3614 105.563 93.3225" fill="#9A9898"/>
<path d="M114.013 93.5679V93.4091H113.855C113.608 93.3718 113.357 93.3718 113.109 93.4091H110.24C110.24 92.9906 110.24 92.5866 110.24 92.1681C110.24 91.7496 110.24 91.2012 110.24 90.725C110.24 90.2488 110.24 89.8159 110.24 89.383H110.427C110.972 89.383 112.12 89.383 112.65 89.383C113.181 89.383 113.152 89.1088 113.152 89.0078C113.152 88.6037 112.636 88.6037 112.464 88.6037H110.312C110.312 88.4594 110.312 88.3007 110.312 88.1564C110.312 88.0121 110.312 87.6946 110.312 87.4781C110.312 86.569 110.312 85.631 110.312 84.693H113.439C113.798 84.693 113.913 84.491 113.913 84.3034C113.921 84.2556 113.921 84.2069 113.913 84.1591C113.913 83.9282 113.726 83.9282 113.396 83.9282H108.662C107.93 83.9282 107.816 84.289 107.787 84.4622V84.8085C107.787 85.1163 107.787 85.4194 107.787 85.7176C107.787 86.0062 107.787 86.2948 107.787 86.5835C107.787 87.608 107.787 88.6326 107.787 89.6572C107.787 90.6817 107.787 91.7063 107.787 92.7309C107.759 93.2115 107.759 93.6933 107.787 94.174V94.2894H107.887C107.981 94.3138 108.08 94.3138 108.174 94.2894H113.468C113.927 94.2894 113.956 93.9863 113.956 93.8998C113.964 93.8471 113.964 93.7936 113.956 93.741V93.6544" fill="#9A9898"/>
<path d="M121.488 89.3397C121.172 89.3397 120.857 89.3397 120.541 89.3397H119.852C119.967 88.8058 120.068 88.2863 120.168 87.7379C120.268 87.1895 120.398 86.4536 120.541 85.8186L120.928 87.1318C121.144 87.8533 121.373 88.5749 121.545 89.3397H121.488ZM123.496 92.0815L122.822 89.3397L122.693 88.7769C122.623 88.3861 122.527 88.0005 122.406 87.6224C122.306 87.305 122.22 86.9731 122.133 86.6412C121.961 86.0062 121.789 85.3424 121.574 84.7219C121.526 84.4738 121.439 84.2351 121.316 84.0148C121.235 83.9175 121.124 83.8512 121 83.8272C120.737 83.8132 120.474 83.8132 120.211 83.8272H119.522C119.135 83.8272 118.92 83.8272 118.82 84.2168C118.719 84.6064 118.518 84.794 118.518 85.1404C118.518 85.4867 118.432 85.5733 118.375 85.7898L117.084 91.0858L116.51 93.5534C116.495 93.6442 116.495 93.7368 116.51 93.8276C116.51 94.1739 117.012 94.2028 117.629 94.2028H118.69C119.035 94.2028 119.078 93.9719 119.078 93.8565C119.095 93.4247 119.148 92.9951 119.236 92.5721V92.3124C119.236 91.9661 119.365 91.6197 119.436 91.2878C119.508 90.9559 119.551 90.624 119.623 90.3065C119.623 90.3065 119.623 90.22 119.623 90.1767H121.674C121.674 90.3354 121.775 90.4941 121.818 90.6384C121.99 91.2012 122.133 91.7063 122.263 92.2402V92.3845C122.374 92.9054 122.563 93.4064 122.822 93.8709C122.937 94.1307 123.109 94.1739 123.41 94.1739C123.712 94.1739 124.013 94.1739 124.013 93.8853C123.998 93.6753 123.944 93.4698 123.855 93.2792L123.496 92.0815Z" fill="#9A9898"/>
<path d="M131.215 93.4525H127.929V93.2938C127.929 93.1784 127.929 93.0629 127.929 92.933V91.0859C127.929 90.7829 127.929 90.4654 127.929 90.1624C127.929 89.8593 127.929 89.5418 127.929 89.2244C127.929 88.9069 127.929 88.7915 127.929 88.575C127.929 88.3585 127.929 88.1421 127.929 87.94V85.6167C127.929 83.9283 127.929 83.8995 127.843 83.8129C127.757 83.7263 127.728 83.7119 126.265 83.7119H126.15C126.092 83.7089 126.033 83.719 125.978 83.7414C125.924 83.7639 125.875 83.7981 125.835 83.8417C125.805 83.905 125.79 83.974 125.79 84.0438C125.79 84.1136 125.805 84.1826 125.835 84.2458C125.835 84.8952 125.835 85.5446 125.835 86.1795C125.835 86.8145 125.835 87.4783 125.835 88.1276V89.7727C125.835 90.3067 125.835 90.8406 125.835 91.3745C125.835 91.9085 125.835 92.4135 125.835 92.933C125.841 92.9713 125.841 93.0103 125.835 93.0485C125.835 93.4381 125.835 94.0875 126.179 94.1741H126.696H130.999C131.444 94.1741 131.674 94.1741 131.788 94.0586L131.86 93.972V93.871C131.86 93.5103 131.631 93.4381 131.272 93.4381" fill="#9A9898"/>
<path d="M143.452 83.6973H142.634H141.989H138.603C137.871 83.6973 137.011 83.7983 137.011 84.3322C137.011 84.5631 137.011 84.794 137.011 85.0249C137.011 85.2558 137.011 85.4867 137.011 85.7176C137.011 87.2328 137.011 88.7769 137.011 90.2632C137.011 91.0425 137.011 91.8361 137.011 92.6154V92.8607C136.99 93.1201 136.99 93.3806 137.011 93.64C137.011 93.9575 137.326 94.1162 137.8 94.1162C138.163 94.1433 138.527 94.1433 138.89 94.1162C139 94.1054 139.103 94.0535 139.177 93.9708C139.251 93.888 139.292 93.7804 139.292 93.6688C139.292 92.6587 139.292 91.6197 139.191 90.624C139.191 90.1911 139.191 89.7437 139.191 89.2964H140.195C140.956 89.2964 142.104 89.2964 142.62 89.2964C143.136 89.2964 143.108 89.1088 143.108 88.9067C143.108 88.7047 142.591 88.5027 142.419 88.5027H141.702H140.985H140.855C139.837 88.5027 139.421 88.5027 139.177 88.5027C139.177 88.1563 139.177 87.81 139.177 87.4781C139.177 86.4968 139.177 85.5732 139.177 84.592C139.401 84.5776 139.627 84.5776 139.851 84.592C141.085 84.592 142.362 84.592 143.596 84.592C144.069 84.592 144.169 84.3899 144.169 84.2168C144.169 84.0436 144.04 83.755 143.452 83.755" fill="#9A9898"/>
<path d="M148.057 88.7192C148.057 87.7812 148.646 84.9384 150.468 84.6209H150.611C150.912 84.6484 151.202 84.7473 151.457 84.9095C151.945 85.2285 152.328 85.6844 152.56 86.2205C152.792 86.7566 152.863 87.3495 152.763 87.9255C152.862 89.3887 152.468 90.8426 151.644 92.0527L151.558 92.1681C151.328 92.5289 150.884 93.1638 150.281 93.1638C149.951 93.1638 149.722 92.8752 149.549 92.6876C148.628 91.5555 148.121 90.1391 148.115 88.6759L148.057 88.7192ZM152.921 84.7075H152.835C152.447 84.3781 152.012 84.1105 151.543 83.9138C151.119 83.7269 150.659 83.6334 150.195 83.6396C149.347 83.6488 148.524 83.9265 147.842 84.4333C147.135 85.0339 146.574 85.79 146.204 86.6433C145.833 87.4965 145.662 88.424 145.705 89.3542C145.676 90.1398 145.831 90.9213 146.157 91.6356C146.484 92.3499 146.973 92.9772 147.584 93.4669C148.147 93.9159 148.845 94.16 149.564 94.1596C150.259 94.1617 150.946 94.0037 151.572 93.6978C152.838 92.6731 153.656 91.1925 153.853 89.5706C153.853 89.181 153.853 88.7769 153.853 88.4017C153.846 88.2864 153.846 88.1707 153.853 88.0554C153.949 87.4707 153.911 86.8718 153.742 86.3041C153.573 85.7365 153.277 85.2151 152.878 84.7797" fill="#9A9898"/>
<path d="M158.243 88.7192C158.243 87.7812 158.831 84.9384 160.639 84.6209H160.797C161.098 84.6483 161.388 84.7473 161.643 84.9095C162.13 85.2285 162.514 85.6843 162.746 86.2205C162.978 86.7566 163.049 87.3494 162.949 87.9255C163.048 89.3886 162.653 90.8426 161.83 92.0527L161.744 92.1681C161.5 92.5289 161.069 93.1638 160.453 93.1638C160.137 93.1638 159.893 92.8752 159.735 92.6876C158.809 91.5585 158.301 90.1401 158.301 88.6759L158.243 88.7192ZM162.992 84.7508H162.906C162.526 84.4182 162.095 84.1501 161.629 83.9571C161.204 83.7701 160.744 83.6767 160.28 83.6829C159.433 83.692 158.609 83.9698 157.928 84.4766C157.233 85.0704 156.682 85.8157 156.316 86.6559C155.951 87.4961 155.781 88.409 155.819 89.3253C155.787 90.1114 155.94 90.894 156.267 91.6089C156.594 92.3238 157.084 92.9506 157.698 93.438C158.26 93.8901 158.959 94.1346 159.678 94.1307C160.374 94.1328 161.061 93.9749 161.686 93.6689C162.952 92.6443 163.77 91.1637 163.967 89.5417C163.967 89.1521 163.967 88.7481 163.967 88.3729V88.0265C164.07 87.4418 164.035 86.8411 163.865 86.2724C163.696 85.7036 163.397 85.1826 162.992 84.7508Z" fill="#9A9898"/>
<path d="M168.285 87.0453C168.27 86.7746 168.241 86.5049 168.199 86.2372C168.199 85.7898 168.099 85.328 168.099 84.8951C168.52 84.9996 168.929 85.1496 169.318 85.3425L169.49 85.429C169.804 85.5732 170.107 85.7421 170.394 85.9341C170.926 86.2617 171.372 86.7133 171.694 87.2508C172.017 87.7883 172.205 88.3959 172.245 89.0223C172.278 89.7786 172.061 90.5246 171.628 91.1436L171.441 91.3889C171.165 91.833 170.793 92.208 170.351 92.4856C169.803 92.8801 169.158 93.1148 168.486 93.1639C168.478 93.1161 168.478 93.0673 168.486 93.0196C168.473 92.8659 168.473 92.7114 168.486 92.5578C168.486 92.5578 168.486 92.4135 168.486 92.3557C168.5 92.2552 168.5 92.1532 168.486 92.0527C168.486 90.6096 168.486 89.08 168.285 87.0597V87.0453ZM169.074 84.1736H168.974C168.49 83.9353 167.972 83.7746 167.439 83.6974C167.291 83.6832 167.142 83.6832 166.994 83.6974H166.908C166.779 83.6928 166.65 83.7192 166.533 83.7744C166.416 83.8296 166.313 83.912 166.234 84.0148C165.93 85.0684 165.838 86.172 165.961 87.2617C165.961 87.2617 165.961 93.3082 166.42 93.7988C166.879 94.2894 167.611 94.1307 167.711 94.1307C168.247 94.1452 168.782 94.0919 169.304 93.972C169.988 93.8758 170.643 93.6344 171.227 93.2636C171.811 92.8929 172.309 92.4014 172.69 91.8218C173.323 91.0413 173.659 90.0587 173.636 89.0511C173.636 86.9298 171.929 85.0683 169.074 84.087" fill="#9A9898"/>
<path d="M64.7628 89.0512C64.7628 88.8371 64.6997 88.6279 64.5814 88.4499C64.4632 88.2719 64.2952 88.1332 64.0986 88.0513C63.902 87.9693 63.6856 87.9479 63.4769 87.9897C63.2682 88.0314 63.0765 88.1345 62.926 88.2859C62.7755 88.4372 62.673 88.6301 62.6315 88.84C62.59 89.05 62.6113 89.2676 62.6927 89.4653C62.7742 89.6631 62.9121 89.8321 63.089 89.9511C63.266 90.07 63.474 90.1335 63.6868 90.1335C63.9722 90.1335 64.2458 90.0194 64.4476 89.8165C64.6494 89.6135 64.7628 89.3382 64.7628 89.0512Z" fill="#9A9898"/>
<path d="M179.389 89.0511C179.392 88.8336 179.33 88.6202 179.212 88.4379C179.094 88.2557 178.925 88.1129 178.726 88.0276C178.527 87.9424 178.307 87.9186 178.095 87.9593C177.882 88 177.687 88.1033 177.533 88.256C177.379 88.4088 177.274 88.6042 177.231 88.8173C177.187 89.0305 177.208 89.2517 177.29 89.453C177.372 89.6542 177.512 89.8264 177.692 89.9475C177.871 90.0687 178.082 90.1334 178.299 90.1334C178.441 90.1353 178.583 90.1087 178.715 90.0552C178.847 90.0017 178.967 89.9222 179.069 89.8216C179.17 89.7209 179.251 89.6009 179.306 89.4686C179.361 89.3364 179.389 89.1945 179.389 89.0511Z" fill="#9A9898"/>
</svg>
